<svg xmlns="http://www.w3.org/2000/svg" width="47" height="47" viewBox="0 0 47 47">
  <g id="Group_1386" data-name="Group 1386" transform="translate(-1553 -395)">
    <rect id="Rectangle_1131" data-name="Rectangle 1131" width="47" height="47" transform="translate(1553 395)" fill="#cc181e"/>
    <g id="Group_1183" data-name="Group 1183" transform="translate(1565 410)">
      <g id="YouTube_1_" transform="translate(0 0)">
        <path id="Lozenge_1_" d="M27.99,9.61a5.912,5.912,0,0,0-.953-2.381,4.338,4.338,0,0,0-2.381-1.111C21.163,5.8,16.083,5.8,16.083,5.8S11,5.8,7.51,6.118A2.693,2.693,0,0,0,5.129,7.229,5.543,5.543,0,0,0,4.018,9.61,27.328,27.328,0,0,0,3.7,13.579v1.905a30.37,30.37,0,0,0,.318,3.969,5.912,5.912,0,0,0,.953,2.381,5.062,5.062,0,0,0,2.7,1.111c1.905.159,8.255.318,8.255.318s5.08,0,8.573-.318a2.693,2.693,0,0,0,2.381-1.111,4.606,4.606,0,0,0,.953-2.381,27.328,27.328,0,0,0,.318-3.969V13.579A19.584,19.584,0,0,0,27.99,9.61Zm-14.447,8.1V10.88l6.668,3.493Z" transform="translate(-3.7 -5.8)" fill="#fff"/>
        <path id="Path_240" data-name="Path 240" d="M9.9,9l5.715,3.81.953-.318Z" transform="translate(-0.057 -3.92)" fill="#fff" opacity="0.12"/>
      </g>
    </g>
  </g>
</svg>
