<?xml version="1.0" encoding="utf-8"?>
<!-- Generator: Adobe Illustrator 23.0.2, SVG Export Plug-In . SVG Version: 6.00 Build 0)  -->
<svg version="1.1" id="Layer_1" xmlns="http://www.w3.org/2000/svg" xmlns:xlink="http://www.w3.org/1999/xlink" x="0px" y="0px"
	 viewBox="0 0 39.8 34.4" style="enable-background:new 0 0 39.8 34.4;" xml:space="preserve">
<style type="text/css">
	.st0{fill:none;}
</style>
<g id="noun_Location_178822" transform="translate(0 0.1)">
	<path id="Path_2606" class="st0" d="M9.9,11.7c0,7.2,7.7,14.9,9.9,17c2.3-2.1,10-9.9,10-17c0-5.5-4.5-10-10-10S9.9,6.3,9.9,11.7
		C9.9,11.7,9.9,11.7,9.9,11.7z M25.5,11.7c0,3.1-2.6,5.6-5.7,5.6c-3.1,0-5.6-2.6-5.6-5.7c0-3.1,2.5-5.6,5.6-5.6
		C23,6,25.5,8.5,25.5,11.7C25.5,11.7,25.5,11.7,25.5,11.7z"/>
	<path id="Path_2607" class="st0" d="M16.1,11.7c0,2.1,1.7,3.8,3.8,3.8s3.8-1.7,3.8-3.8s-1.7-3.8-3.8-3.8
		C17.8,7.9,16.1,9.6,16.1,11.7z"/>
	<path id="Path_2608" d="M39.7,33.2C39.7,33.2,39.7,33.2,39.7,33.2l0-0.1l-2.8-7.2l0,0c0,0,0,0,0-0.1l-0.1-0.1c0,0,0,0,0-0.1l0,0
		c0,0,0,0-0.1,0l0,0c0,0,0,0-0.1,0s0,0-0.1,0c0,0,0,0-0.1,0h-7c-0.5,0-0.9,0.4-0.9,0.9s0.4,0.9,0.9,0.9h6.2l2.1,5.4H2.2l2.1-5.4h6.2
		c0.5,0,0.9-0.4,0.9-0.9s-0.4-0.9-0.9-0.9h-7c0,0,0,0-0.1,0c0,0,0,0-0.1,0l0,0c0,0,0,0-0.1,0l0,0c0,0,0,0-0.1,0l0,0c0,0,0,0,0,0.1
		c0,0,0,0,0,0c0,0,0,0,0,0c0,0,0,0,0,0.1l0,0L0,33.1v0c0,0,0,0,0,0.1v0.1l0,0v0.2c0,0,0,0,0,0.1v0.1c0,0,0,0,0,0.1s0,0,0,0.1
		s0,0,0,0.1l0,0c0,0,0.1,0,0.1,0c0,0,0,0,0.1,0l0,0c0,0,0,0,0.1,0l0,0c0,0,0,0,0.1,0h38.5c0,0,0,0,0.1,0l0,0c0,0,0,0,0.1,0
		c0,0,0,0,0,0c0,0,0,0,0,0c0,0,0,0,0.1,0s0,0,0.1,0l0,0c0,0,0,0,0-0.1s0,0,0-0.1s0,0,0-0.1s0,0,0-0.1c0,0,0,0,0-0.1v-0.2l0,0v0
		C39.8,33.3,39.7,33.3,39.7,33.2z"/>
	<path id="Path_2609" d="M8.1,11.7c0,3.9,1.9,8.3,5.6,13c1.7,2.1,3.5,4.1,5.6,5.9c0.3,0.3,0.9,0.3,1.2,0c2-1.8,3.9-3.8,5.6-5.9
		c3.7-4.7,5.6-9.1,5.6-13C31.7,5.2,26.5-0.1,20-0.2C13.5-0.2,8.1,5,8.1,11.5C8.1,11.6,8.1,11.7,8.1,11.7L8.1,11.7z M29.8,11.7
		c0,7.1-7.7,14.9-10,17c-2.3-2.1-10-9.8-10-17c0-5.5,4.5-10,10-10S29.8,6.3,29.8,11.7z"/>
	<path id="Path_2610" d="M14.2,11.7c0,3.1,2.6,5.6,5.7,5.6c3.1,0,5.6-2.6,5.6-5.7c0-3.1-2.5-5.6-5.6-5.6C16.8,6,14.2,8.5,14.2,11.7
		C14.2,11.7,14.2,11.7,14.2,11.7z M23.6,11.7c0,2.1-1.7,3.8-3.8,3.8s-3.8-1.7-3.8-3.8s1.7-3.8,3.8-3.8C21.9,7.9,23.6,9.6,23.6,11.7z
		"/>
</g>
</svg>
