<svg xmlns="http://www.w3.org/2000/svg" width="47" height="47" viewBox="0 0 47 47">
  <g id="Group_1379" data-name="Group 1379" transform="translate(-1553 -254)">
    <g id="Group_1378" data-name="Group 1378">
      <rect id="Rectangle_1128" data-name="Rectangle 1128" width="47" height="47" transform="translate(1553 254)" fill="#3b5998"/>
    </g>
    <g id="Facebook_1_" transform="translate(1566 266)">
      <path id="Subtraction_1" data-name="Subtraction 1" d="M11.977,22.768h-10A1.983,1.983,0,0,1,0,20.787V1.979A1.982,1.982,0,0,1,1.98,0H20.788a1.982,1.982,0,0,1,1.979,1.979V20.787a1.982,1.982,0,0,1-1.979,1.98H15.64V13.957h2.969l.4-3.464H15.64V8.315c0-.874.2-1.683,1.683-1.683H19.1V3.563c-.1,0-.274-.01-.52-.025h0c-.511-.029-1.282-.074-2.148-.074a4.472,4.472,0,0,0-3.193,1.163,4.58,4.58,0,0,0-1.262,3.39v2.574H9.008v3.465h2.969v8.711Z" fill="#fff"/>
    </g>
  </g>
</svg>
