<svg xmlns="http://www.w3.org/2000/svg" width="35.391" height="37" viewBox="0 0 35.391 37">
  <g id="Group_1263" data-name="Group 1263" transform="translate(0 0.1)">
    <path id="Path_912" data-name="Path 912" d="M8.805,26.315A2.679,2.679,0,0,0,6.135,23.6L1.78,23.552V2.9A1.14,1.14,0,0,1,2.9,1.773H21.451A1.14,1.14,0,0,1,22.575,2.9V18.259L24.4,16.433V2.851A2.938,2.938,0,0,0,21.451-.1H2.951A3.009,3.009,0,0,0,0,2.9V25.1a.89.89,0,0,0,.234.609l6.557,7.072a.925.925,0,0,0,.656.281h3.7l.375-1.78H8.758Zm-6.463-.984,3.794.047a.9.9,0,0,1,.89.937l-.047,4.028Z"/>
    <path id="Path_913" data-name="Path 913" d="M24.277,18.1H12.99a.89.89,0,1,0,0,1.78H24.277a.889.889,0,0,0,.89-.89A.836.836,0,0,0,24.277,18.1Z" transform="translate(-6.433 -9.676)"/>
    <path id="Path_914" data-name="Path 914" d="M24.277,28.3H12.99a.89.89,0,0,0,0,1.78H24.277a.889.889,0,0,0,.89-.89A.836.836,0,0,0,24.277,28.3Z" transform="translate(-6.433 -15.099)"/>
    <path id="Path_915" data-name="Path 915" d="M19.547,39.39a.889.889,0,0,0-.89-.89H12.99a.89.89,0,0,0,0,1.78h5.667A.889.889,0,0,0,19.547,39.39Z" transform="translate(-6.433 -20.522)"/>
    <path id="Path_916" data-name="Path 916" d="M49.2,34.725,44.371,29.9a.89.89,0,0,0-1.265,0l-2.248,2.248V32.2L28.494,44.466h0l-.515.515a.957.957,0,0,0-.234.422l-1.358,6.182a1.116,1.116,0,0,0,.234.843.925.925,0,0,0,.656.281h.187l6.182-1.358a.906.906,0,0,0,.422-.234l.515-.515h0L46.854,38.284h0L49.1,36.036a.925.925,0,0,0,.281-.656A.7.7,0,0,0,49.2,34.725Zm-7.728-.656,1.78,1.78,1.78,1.78L33.974,48.682l-1.546-1.546-2.014-2.014ZM29.337,46.574l1.78,1.78,1.405,1.405-4.075.89Zm16.954-10.21-1.78-1.78-1.78-1.78.984-.984,3.559,3.559Z" transform="translate(-14.022 -15.809)"/>
  </g>
</svg>
