<svg xmlns="http://www.w3.org/2000/svg" width="47" height="47" viewBox="0 0 47 47">
  <g id="Group_1387" data-name="Group 1387" transform="translate(-1553 -348)">
    <g id="Group_1381" data-name="Group 1381">
      <g id="Group_1382" data-name="Group 1382">
        <g id="Group_1383" data-name="Group 1383">
          <g id="Group_1384" data-name="Group 1384">
            <g id="Group_1385" data-name="Group 1385">
              <rect id="Rectangle_1130" data-name="Rectangle 1130" width="47" height="47" transform="translate(1553 348)" fill="#c13584"/>
            </g>
          </g>
        </g>
      </g>
    </g>
    <g id="Group_1182" data-name="Group 1182" transform="translate(1566 360)">
      <g id="Group_286" data-name="Group 286" transform="translate(0 0)">
        <path id="Path_437" data-name="Path 437" d="M12.944,7.2a5.744,5.744,0,1,0,5.744,5.744A5.742,5.742,0,0,0,12.944,7.2Zm0,9.448a3.7,3.7,0,1,1,3.7-3.7,3.71,3.71,0,0,1-3.7,3.7Z" transform="translate(-1.758 -1.758)" fill="#fff"/>
        <ellipse id="Ellipse_42" data-name="Ellipse 42" cx="1.361" cy="1.361" rx="1.361" ry="1.361" transform="translate(15.797 3.855)" fill="#fff"/>
        <path id="Path_438" data-name="Path 438" d="M21.769,3.855A5.521,5.521,0,0,0,18.518.6,8.289,8.289,0,0,0,15.8.076C14.588,0,14.21,0,11.187,0s-3.4,0-4.611.076A8.684,8.684,0,0,0,3.855.6,5.521,5.521,0,0,0,.6,3.855,6.718,6.718,0,0,0,.076,6.576C0,7.785,0,8.163,0,11.187s0,3.4.076,4.611A8.684,8.684,0,0,0,.6,18.518a5.521,5.521,0,0,0,3.25,3.25,8.289,8.289,0,0,0,2.721.529c1.209.076,1.587.076,4.611.076s3.4,0,4.611-.076a8.684,8.684,0,0,0,2.721-.529,5.521,5.521,0,0,0,3.25-3.25A8.289,8.289,0,0,0,22.3,15.8c.076-1.209.076-1.587.076-4.611s0-3.4-.076-4.611A8.684,8.684,0,0,0,21.769,3.855ZM20.257,15.722a6.942,6.942,0,0,1-.378,2.116,3.652,3.652,0,0,1-2.116,2.116,6.48,6.48,0,0,1-2.041.378c-1.209.076-1.512.076-4.535.076s-3.326,0-4.535-.076a6.109,6.109,0,0,1-2.041-.378,3.652,3.652,0,0,1-2.116-2.116A6.48,6.48,0,0,1,2.116,15.8c-.076-1.209-.076-1.512-.076-4.535s0-3.326.076-4.535a6.942,6.942,0,0,1,.378-2.116A3.29,3.29,0,0,1,4.535,2.419a6.48,6.48,0,0,1,2.041-.378c1.209-.076,1.512-.076,4.535-.076s3.326,0,4.535.076a6.109,6.109,0,0,1,2.041.378A3.652,3.652,0,0,1,19.8,4.535a6.48,6.48,0,0,1,.378,2.041c.076,1.209.076,1.512.076,4.535s.076,3.4,0,4.611Z" fill="#fff"/>
      </g>
    </g>
  </g>
</svg>
