<?xml version="1.0" encoding="utf-8"?>
<!-- Generator: Adobe Illustrator 21.0.2, SVG Export Plug-In . SVG Version: 6.00 Build 0)  -->
<svg version="1.1" id="Layer_1" xmlns="http://www.w3.org/2000/svg" xmlns:xlink="http://www.w3.org/1999/xlink" x="0px" y="0px"
	 width="23px" height="23px" viewBox="0 0 23 23" style="enable-background:new 0 0 23 23;" xml:space="preserve">
<style type="text/css">
	.st0{fill:#0077B5;}
	.st1{fill:#FFFFFF;}
</style>
<g id="LinkedIn">
	<path class="st0" d="M23,23H0V0h23V23z"/>
	<path class="st1" d="M3.7,8.7h3.4v11H3.7C3.7,19.7,3.7,8.7,3.7,8.7z M5.4,3.2c1.1,0,2,0.9,2,2s-0.9,2-2,2s-2-0.9-2-2
		S4.3,3.2,5.4,3.2 M9.3,19.7h3.4v-5.4c0-1.4,0.3-2.8,2-2.8c1.8,0,1.8,1.6,1.8,2.9v5.3h3.4v-6c0-3-0.6-5.2-4.1-5.2
		c-1.7,0-2.8,0.9-3.2,1.8V8.7H9.3V19.7z"/>
</g>
</svg>
