<?xml version="1.0" encoding="utf-8"?>
<!-- Generator: Adobe Illustrator 23.0.0, SVG Export Plug-In . SVG Version: 6.00 Build 0)  -->
<svg version="1.1" id="Layer_1" xmlns="http://www.w3.org/2000/svg" xmlns:xlink="http://www.w3.org/1999/xlink" x="0px" y="0px"
	 viewBox="0 0 156 72.4" style="enable-background:new 0 0 156 72.4;" xml:space="preserve">
<style type="text/css">
	.st0{fill:#FFFFFF;}
	.st1{clip-path:url(#SVGID_2_);}
</style>
<g id="Group_1022">
	<path id="Path_1594" class="st0" d="M21.4,50.4c2.8-3.9,0.8-8.1-0.8-12.4c-0.9-2.1-1.5-4.3-1.5-6.6c-0.2,0.3-0.4,0.7-0.5,1
		C15.8,38.1,12.3,44,15,49.2c0.5,1,1.3,1.9,2.3,2.5c0.4,0.3,0.9,0.6,1.4,0.7C19.7,52,20.7,51.3,21.4,50.4"/>
</g>
<g id="Group_1023">
	<path id="Path_1595" class="st0" d="M15.4-0.1c9.5,8.2,6.1,16.7,2.1,24.8c-4.1,8.2-9.1,16.6-3.7,24c-8.9-8.2-6.1-16.4-2.2-24.3
		S20.8,8.4,15.4-0.1"/>
</g>
<g id="Group_1026" transform="translate(20.077 15.515)">
	<g>
		<defs>
			<path id="SVGID_1_" d="M2,16.5C4.4,22.2,7.1,27.7,3.2,33C9.6,27.5,8.1,22.2,6,16.7S0.8,5.3,4.8-0.1C-2,4.8-0.2,10.8,2,16.5"/>
		</defs>
		<clipPath id="SVGID_2_">
			<use xlink:href="#SVGID_1_"  style="overflow:visible;"/>
		</clipPath>
		<g id="Group_1025" class="st1">
			<rect id="Rectangle_1005" x="-2" y="-0.1" class="st0" width="11.7" height="33"/>
		</g>
	</g>
</g>
<g id="Group_1027">
	<path id="Path_1597" class="st0" d="M24.1,20.2c-0.2,1.4,0,2.8,0.4,4.1c5.2,2.5,8.6,7.7,8.7,13.4c0,8.1-6.6,14.7-14.7,14.7
		S3.8,45.9,3.8,37.8c0-4.4,2-8.5,5.4-11.3c0.5-1,1-2,1.6-3c0.4-0.8,0.8-1.4,1.1-2.2c0.2-0.4,0.4-0.7,0.6-1C5,22.9,0.1,29.9,0,37.8
		c0,10.2,8.3,18.4,18.5,18.4c10.2,0,18.4-8.3,18.4-18.5C36.8,29.7,31.7,22.6,24.1,20.2"/>
</g>
<g id="Group_1028">
	<path id="Path_1598" class="st0" d="M67.2,60.6h1.7l-1.8,9.1h-1.7L67.2,60.6z"/>
</g>
<g id="Group_1029">
	<path id="Path_1599" class="st0" d="M71.1,71c1,0.1,2-0.6,2.2-1.6l0.1-0.4c0-0.1,0-0.3,0.1-0.4l0,0c-0.4,0.6-1.1,0.9-1.9,0.9
		c-1.3,0.1-2.5-0.9-2.6-2.3c0-0.1,0-0.3,0-0.4c-0.1-2,1.4-3.7,3.5-3.9c0,0,0,0,0,0c0.8-0.1,1.5,0.3,1.9,0.9l0,0v-0.3l0.1-0.5h1.6
		l-1.2,6.2c-0.3,1.8-1.9,3.1-3.8,3c-0.9,0-1.8-0.2-2.5-0.7l0.7-1.2C69.8,70.9,70.4,71,71.1,71 M71.9,68.2c1.3,0,2-1.5,2-2.5
		c0-0.9-0.6-1.2-1.3-1.2c-1.2,0.1-2.1,1.1-2,2.3c0,0,0,0,0,0.1c-0.1,0.7,0.5,1.3,1.2,1.4C71.9,68.2,71.9,68.2,71.9,68.2"/>
</g>
<g id="Group_1030">
	<path id="Path_1600" class="st0" d="M77.6,63.1h1.6l-0.1,0.6c-0.1,0.3-0.2,0.7-0.2,0.7l0,0c0.5-0.9,1.5-1.4,2.5-1.4
		c0.9-0.1,1.8,0.5,2,1.5c0,0.1,0,0.2,0,0.3c0,0.3-0.1,0.6-0.1,0.8l-0.8,4h-1.7l0.8-3.9c0-0.2,0.1-0.5,0.1-0.6c0-0.6-0.3-0.8-0.8-0.8
		c-1.2,0.1-2.2,1-2.4,2.3L78,69.6h-1.7L77.6,63.1z"/>
</g>
<g id="Group_1031">
	<path id="Path_1601" class="st0" d="M85.2,63.1h1.7l-1.3,6.6H84L85.2,63.1z M85.7,60.6h1.7L87.1,62h-1.7L85.7,60.6z"/>
</g>
<g id="Group_1032">
	<path id="Path_1602" class="st0" d="M87.6,67.2l0.6-2.6h-0.8l0.3-1.3h0.9l0.4-1.9h1.6l-0.4,1.9h1.5l-0.3,1.3h-1.5l-0.6,2.4
		c0,0.2-0.1,0.5-0.1,0.6c0,0.8,0.6,0.8,1,0.8h0.4l-0.3,1.4h-0.5c-1.2,0-2.4-0.5-2.4-2C87.5,67.6,87.6,67.4,87.6,67.2"/>
</g>
<g id="Group_1033">
	<path id="Path_1603" class="st0" d="M95.2,63c1.3-0.2,2.4,0.7,2.6,2c0,0.1,0,0.3,0,0.4c0,0.4-0.1,0.8-0.2,1.2h-4.5v0.3
		c0,0.8,0.6,1.5,1.4,1.5c0.1,0,0.1,0,0.2,0c0.7-0.1,1.5-0.3,2.1-0.8l0.5,1.2c-0.7,0.5-1.6,0.8-2.5,0.8c-2.1,0-3.2-1.2-3.2-2.8
		C91.4,64.8,93,63.1,95,63C95.1,63,95.1,63,95.2,63 M96.2,65.6v-0.3c0-0.5-0.4-1-0.9-1c0,0-0.1,0-0.1,0c-0.8,0-1.6,0.6-1.9,1.3
		L96.2,65.6z"/>
</g>
<g id="Group_1034">
	<path id="Path_1604" class="st0" d="M103.3,60.6h1.7l-1.5,7.6h3.9l-0.3,1.5h-5.6L103.3,60.6z"/>
</g>
<g id="Group_1035">
	<path id="Path_1605" class="st0" d="M111.8,63c1.3-0.2,2.4,0.7,2.6,2c0,0.1,0,0.3,0,0.4c0,0.4-0.1,0.8-0.2,1.2h-4.5v0.3
		c0,0.8,0.6,1.5,1.4,1.5c0.1,0,0.1,0,0.2,0c0.7-0.1,1.5-0.3,2.1-0.8l0.5,1.2c-0.7,0.5-1.6,0.8-2.5,0.8c-2.1,0-3.2-1.2-3.2-2.8
		c-0.1-2.1,1.5-3.8,3.5-3.9C111.7,63,111.8,63,111.8,63 M112.8,65.6v-0.3c0-0.5-0.4-1-0.9-1c0,0-0.1,0-0.1,0c-0.8,0-1.6,0.6-1.9,1.3
		L112.8,65.6z"/>
</g>
<g id="Group_1036">
	<path id="Path_1606" class="st0" d="M119,65.6h0.3v-0.4c0-0.6-0.3-0.8-1-0.8c-0.7,0.1-1.4,0.3-2,0.7l-0.4-1.2
		c0.8-0.5,1.7-0.7,2.6-0.8c1.2,0,2.4,0.5,2.4,2c0,0.2,0,0.4-0.1,0.7l-0.8,4h-1.6l0.1-0.6c0.1-0.2,0.1-0.3,0.1-0.5l0,0
		c-0.5,0.7-1.3,1.2-2.2,1.2c-1,0.1-1.8-0.6-2-1.5c0-0.1,0-0.1,0-0.2C114.6,66.1,117.2,65.6,119,65.6 M117.1,68.6
		c0.9-0.2,1.7-0.9,1.9-1.8v-0.1h-0.3c-0.8,0-2.4,0.1-2.4,1.2C116.3,68.3,116.7,68.6,117.1,68.6"/>
</g>
<g id="Group_1037">
	<path id="Path_1607" class="st0" d="M122.6,63.1h1.6l-0.2,1.1c-0.1,0.2-0.1,0.3-0.1,0.5l0,0c0.4-1,1.3-1.6,2.4-1.7h0.4l-0.3,1.6
		H126c-0.9,0-2.2,1.1-2.4,2.7l-0.5,2.4h-1.8L122.6,63.1z"/>
</g>
<g id="Group_1038">
	<path id="Path_1608" class="st0" d="M127.3,63.1h1.6l-0.1,0.6c-0.1,0.3-0.2,0.7-0.2,0.7l0,0c0.5-0.9,1.5-1.4,2.5-1.4
		c0.9-0.1,1.8,0.5,2,1.5c0,0.1,0,0.2,0,0.3c0,0.3-0.1,0.6-0.1,0.8l-0.8,4h-1.7l0.8-3.9c0-0.2,0.1-0.5,0.1-0.6c0-0.6-0.3-0.8-0.8-0.8
		c-1.2,0.1-2.2,1-2.4,2.3l-0.6,2.9H126L127.3,63.1z"/>
</g>
<g id="Group_1039">
	<path id="Path_1609" class="st0" d="M134.9,63.1h1.7l-1.3,6.6h-1.6L134.9,63.1z M135.4,60.6h1.7l-0.3,1.4h-1.7L135.4,60.6z"/>
</g>
<g id="Group_1040">
	<path id="Path_1610" class="st0" d="M138,63.1h1.6l-0.1,0.6c-0.1,0.3-0.2,0.7-0.2,0.7l0,0c0.5-0.9,1.5-1.4,2.5-1.4
		c0.9-0.1,1.8,0.5,2,1.5c0,0.1,0,0.2,0,0.3c0,0.3-0.1,0.6-0.1,0.8l-0.8,4h-1.7l0.8-3.9c0-0.2,0.1-0.5,0.1-0.6c0-0.6-0.3-0.8-0.8-0.8
		c-1.2,0.1-2.2,1-2.4,2.3l-0.6,2.9h-1.7L138,63.1z"/>
</g>
<g id="Group_1041">
	<path id="Path_1611" class="st0" d="M146.6,71c1,0.1,2-0.6,2.2-1.6l0.1-0.4c0-0.1,0-0.3,0.1-0.4l0,0c-0.4,0.6-1.1,0.9-1.9,0.9
		c-1.3,0.1-2.5-0.9-2.6-2.3c0-0.1,0-0.3,0-0.4c-0.1-2,1.4-3.7,3.5-3.9c0,0,0,0,0,0c0.8-0.1,1.5,0.3,1.9,0.9l0,0v-0.3l0.1-0.5h1.6
		l-1.2,6.2c-0.3,1.8-1.9,3.1-3.8,3c-0.9,0-1.8-0.2-2.5-0.7l0.7-1.2C145.3,70.8,145.9,71,146.6,71 M147.5,68.2c1.3,0,2-1.5,2-2.5
		c0-0.9-0.6-1.2-1.3-1.2c-1.2,0.1-2.1,1.1-2,2.3c0,0,0,0,0,0.1c-0.1,0.7,0.5,1.3,1.2,1.4C147.5,68.2,147.5,68.2,147.5,68.2"/>
</g>
<g id="Group_1042">
	<path id="Path_1612" class="st0" d="M143.3,48.5c-1.3,0-3.4-0.1-5.5-0.1v-6.6h6.1c2.6,0,4.4,1.1,4.4,3.1
		C148.5,47.2,146.6,48.5,143.3,48.5 M142.7,29.5c3.3,0,4.9,1,4.9,3.2s-1.7,3.6-4.3,3.6H138v-6.8L142.7,29.5L142.7,29.5z M149.4,38.8
		c3.3-0.9,5.5-3.9,5.4-7.3c0-5.2-4-8.2-11.1-8.2c-3.9,0-9.7,0.1-13.4,0.3v30.8c3.9,0.2,10.2,0.4,14,0.4c7.2,0,11.7-3.2,11.7-8.7
		C156,42.5,153.5,39.6,149.4,38.8 M127,25.2c-4-1.3-8.2-2-12.4-2.1c-7.7,0-12.5,3.7-12.5,9.8c0,5.4,3.2,7.6,10.1,9
		c3.9,0.8,7.4,1.2,7.4,3.7c0,1.8-1.7,2.6-5,2.6c-4-0.2-8-1.1-11.7-2.6l-1.7,6.8c4.4,1.7,9,2.5,13.7,2.6c7.7,0,12.9-3.4,12.9-9.9
		c0-5.9-4.2-7.9-10.5-9.3c-4.3-0.9-6.9-1.2-6.9-3.4c0-1.9,1.6-2.7,4.3-2.7c3.7,0.2,7.3,0.9,10.8,2.1L127,25.2z M84.7,47.8
		c-1.5,0-3.2,0-4.8-0.1V30.1c1.4-0.1,2.8-0.1,4.1-0.1c5,0,8.6,3.5,8.6,8.8C92.6,44.3,89.1,47.8,84.7,47.8 M83.8,23.2
		c-4.2,0-8.1,0.2-11.5,0.4v30.8c3.4,0.2,7.6,0.4,12.2,0.4c9.2,0,16-6.1,16-15.9C100.5,29.2,93.7,23.2,83.8,23.2 M54.3,47.8
		c-1.5,0-3.2,0-4.8-0.1V30.1c1.3-0.1,2.8-0.1,4.1-0.1c5,0,8.6,3.5,8.6,8.8C62.2,44.3,58.6,47.8,54.3,47.8 M53.2,23.2
		c-4.2,0-8.1,0.2-11.5,0.4v30.7c3.4,0.2,7.6,0.4,12.2,0.4c9.2,0,16-6.1,16-15.9C70.1,29.2,63.3,23.2,53.2,23.2"/>
</g>
</svg>
