<svg id="Group_1044" data-name="Group 1044" xmlns="http://www.w3.org/2000/svg" xmlns:xlink="http://www.w3.org/1999/xlink" width="241.331" height="112.01" viewBox="0 0 241.331 112.01">
  <defs>
    <clipPath id="clip-path">
      <rect id="Rectangle_1003" data-name="Rectangle 1003" width="241.331" height="112.01"/>
    </clipPath>
    <clipPath id="clip-path-3">
      <path id="Path_1596" data-name="Path 1596" d="M24.477,42.1c3.637,8.874,7.855,17.311,1.891,25.457,9.892-8.437,7.564-16.583,4.219-25.166s-8-17.6-1.746-25.893c-10.619,7.564-7.855,16.729-4.364,25.6" transform="translate(-21.351 -16.5)"/>
    </clipPath>
    <linearGradient id="linear-gradient" x1="-19.537" y1="3.983" x2="-19.457" y2="3.983" gradientUnits="objectBoundingBox">
      <stop offset="0" stop-color="#f7931e"/>
      <stop offset="0.156" stop-color="#f99f1b"/>
      <stop offset="1" stop-color="#fd0"/>
    </linearGradient>
  </defs>
  <g id="Group_1024" data-name="Group 1024">
    <g id="Group_1022" data-name="Group 1022" clip-path="url(#clip-path)">
      <path id="Path_1594" data-name="Path 1594" d="M26.389,62.885c4.364-6.11,1.309-12.51-1.309-19.2-1.309-3.346-2.473-6.837-2.327-10.183a7.8,7.8,0,0,0-.727,1.6c-4.364,8.728-9.746,17.747-5.673,25.893a9.441,9.441,0,0,0,3.491,3.928,5.28,5.28,0,0,0,2.182,1.018,10.508,10.508,0,0,0,4.364-3.055" transform="translate(6.778 15.232)" fill="#0056a2"/>
    </g>
    <g id="Group_1023" data-name="Group 1023" clip-path="url(#clip-path)">
      <path id="Path_1595" data-name="Path 1595" d="M20.033,0c14.692,12.656,9.455,25.893,3.2,38.4C16.833,51.059,9.123,64.151,17.56,75.5,3.741,62.842,8.1,50.186,14.215,37.967S28.325,13.092,20.033,0" transform="translate(3.823)" fill="#98002e"/>
    </g>
  </g>
  <g id="Group_1026" data-name="Group 1026" transform="translate(31.058 24.002)">
    <g id="Group_1025" data-name="Group 1025" clip-path="url(#clip-path-3)">
      <rect id="Rectangle_1005" data-name="Rectangle 1005" width="18.038" height="51.059" transform="translate(-3.128 -0.145)" fill="url(#linear-gradient)"/>
    </g>
  </g>
  <g id="Group_1043" data-name="Group 1043">
    <g id="Group_1027" data-name="Group 1027" clip-path="url(#clip-path)">
      <path id="Path_1597" data-name="Path 1597" d="M37.24,21.5a16.234,16.234,0,0,0,.582,6.4A23.465,23.465,0,0,1,51.2,48.7a22.693,22.693,0,1,1-45.386,0A22.381,22.381,0,0,1,14.11,31.246a47.114,47.114,0,0,1,2.473-4.655c.582-1.164,1.164-2.182,1.746-3.346.291-.582.582-1.018.873-1.6A28.946,28.946,0,0,0,0,48.7,28.512,28.512,0,1,0,37.24,21.5" transform="translate(0 9.776)" fill="#636466"/>
    </g>
    <g id="Group_1028" data-name="Group 1028" clip-path="url(#clip-path)">
      <path id="Path_1598" data-name="Path 1598" d="M72.364,64.5h2.618L72.218,78.61H69.6Z" transform="translate(31.646 29.327)" fill="#0056a2"/>
    </g>
    <g id="Group_1029" data-name="Group 1029" clip-path="url(#clip-path)">
      <path id="Path_1599" data-name="Path 1599" d="M76.828,79.465c1.6,0,3.055-.727,3.346-2.473l.145-.582a1.5,1.5,0,0,1,.145-.582h0a3.581,3.581,0,0,1-2.909,1.455c-2.618,0-3.928-1.746-3.928-4.219,0-2.764,1.891-5.964,5.382-5.964,1.164,0,2.473.291,2.909,1.455h0v-.436l.145-.727h2.473l-1.891,9.6a5.541,5.541,0,0,1-5.819,4.655A7.92,7.92,0,0,1,72.9,80.629l1.018-1.891a6.658,6.658,0,0,0,2.909.727M78.137,75.1c2.037,0,3.055-2.327,3.055-3.928,0-1.455-.873-1.891-2.037-1.891-1.891,0-3.055,1.746-3.055,3.637A2.024,2.024,0,0,0,78.137,75.1" transform="translate(33.146 30.509)" fill="#0056a2"/>
    </g>
    <g id="Group_1030" data-name="Group 1030" clip-path="url(#clip-path)">
      <path id="Path_1600" data-name="Path 1600" d="M83.137,67.291H85.61l-.145.873c-.145.436-.291,1.018-.291,1.018h0A4.65,4.65,0,0,1,89.1,67c1.746,0,3.055.873,3.055,2.764,0,.436-.145.873-.145,1.309l-1.164,6.255H88.228l1.164-5.964c0-.291.145-.727.145-.873,0-.873-.436-1.164-1.309-1.164a4.013,4.013,0,0,0-3.637,3.491l-.873,4.51H81.1Z" transform="translate(36.874 30.463)" fill="#0056a2"/>
    </g>
    <g id="Group_1031" data-name="Group 1031" clip-path="url(#clip-path)">
      <path id="Path_1601" data-name="Path 1601" d="M91.191,68.428H93.81L91.773,78.61H89.3Zm.727-3.928h2.618L94.1,66.682H91.482Z" transform="translate(40.603 29.327)" fill="#0056a2"/>
    </g>
    <g id="Group_1032" data-name="Group 1032" clip-path="url(#clip-path)">
      <path id="Path_1602" data-name="Path 1602" d="M93.336,74.319l.873-4.073H92.9l.436-2.037h1.455l.582-2.909h2.473l-.582,2.909h2.327l-.436,2.037H96.828l-.873,3.637c0,.291-.145.727-.145.873,0,1.164.873,1.309,1.6,1.309h.582l-.436,2.182h-.727c-1.891,0-3.637-.727-3.637-3.055,0-.291.145-.582.145-.873" transform="translate(42.24 29.691)" fill="#0056a2"/>
    </g>
    <g id="Group_1033" data-name="Group 1033" clip-path="url(#clip-path)">
      <path id="Path_1603" data-name="Path 1603" d="M102.975,67c2.764,0,4.073,1.6,4.073,3.782a8.175,8.175,0,0,1-.291,1.891H99.775v.436a2.255,2.255,0,0,0,2.473,2.327,6.421,6.421,0,0,0,3.2-1.164l.727,1.891a7.287,7.287,0,0,1-3.928,1.309c-3.2,0-4.946-1.891-4.946-4.364A5.781,5.781,0,0,1,102.975,67m1.6,4.073v-.436a1.526,1.526,0,0,0-1.6-1.6,3.324,3.324,0,0,0-2.909,2.037Z" transform="translate(44.238 30.463)" fill="#0056a2"/>
    </g>
    <g id="Group_1034" data-name="Group 1034" clip-path="url(#clip-path)">
      <path id="Path_1604" data-name="Path 1604" d="M110.764,64.5h2.618l-2.327,11.783h6.11l-.436,2.327H108Z" transform="translate(49.105 29.327)" fill="#0056a2"/>
    </g>
    <g id="Group_1035" data-name="Group 1035" clip-path="url(#clip-path)">
      <path id="Path_1605" data-name="Path 1605" d="M120.675,67c2.764,0,4.073,1.6,4.073,3.782a8.175,8.175,0,0,1-.291,1.891h-6.982v.436a2.255,2.255,0,0,0,2.473,2.327,6.421,6.421,0,0,0,3.2-1.164l.727,1.891a7.286,7.286,0,0,1-3.928,1.309c-3.2,0-4.946-1.891-4.946-4.364A5.781,5.781,0,0,1,120.675,67m1.6,4.073v-.436a1.526,1.526,0,0,0-1.6-1.6,3.324,3.324,0,0,0-2.909,2.037Z" transform="translate(52.286 30.463)" fill="#0056a2"/>
    </g>
    <g id="Group_1036" data-name="Group 1036" clip-path="url(#clip-path)">
      <path id="Path_1606" data-name="Path 1606" d="M128.637,71.028h.436v-.582c0-.873-.436-1.309-1.6-1.309a6.843,6.843,0,0,0-3.055,1.018l-.582-1.891A8.749,8.749,0,0,1,127.91,67.1c1.891,0,3.782.727,3.782,3.055a2.839,2.839,0,0,1-.145,1.018l-1.164,6.255H127.91l.145-.873a2.546,2.546,0,0,0,.145-.727h0a4.217,4.217,0,0,1-3.346,1.891c-1.6,0-3.055-.873-3.055-2.618.145-3.346,4.073-4.073,6.837-4.073m-2.909,4.655c1.309,0,2.618-1.455,2.909-2.764v-.145H128.2c-1.164,0-3.782.145-3.782,1.891a1.18,1.18,0,0,0,1.309,1.018" transform="translate(55.38 30.509)" fill="#0056a2"/>
    </g>
    <g id="Group_1037" data-name="Group 1037" clip-path="url(#clip-path)">
      <path id="Path_1607" data-name="Path 1607" d="M131.037,67.245h2.473l-.291,1.746a2.546,2.546,0,0,0-.145.727h0A4.275,4.275,0,0,1,136.71,67.1h.582l-.436,2.473h-.582c-1.455,0-3.346,1.746-3.782,4.219l-.727,3.637H129Z" transform="translate(58.654 30.509)" fill="#0056a2"/>
    </g>
    <g id="Group_1038" data-name="Group 1038" clip-path="url(#clip-path)">
      <path id="Path_1608" data-name="Path 1608" d="M136.037,67.291h2.473l-.145.873c-.145.436-.291,1.018-.291,1.018h0A4.65,4.65,0,0,1,142,67c1.746,0,3.055.873,3.055,2.764,0,.436-.145.873-.145,1.309l-1.164,6.255h-2.618l1.164-5.964c0-.291.145-.727.145-.873,0-.873-.436-1.164-1.309-1.164a4.013,4.013,0,0,0-3.637,3.491l-.873,4.51H134Z" transform="translate(60.927 30.463)" fill="#0056a2"/>
    </g>
    <g id="Group_1039" data-name="Group 1039" clip-path="url(#clip-path)">
      <path id="Path_1609" data-name="Path 1609" d="M144.091,68.428h2.618L144.673,78.61H142.2Zm.727-3.928h2.618L147,66.682h-2.618Z" transform="translate(64.655 29.327)" fill="#0056a2"/>
    </g>
    <g id="Group_1040" data-name="Group 1040" clip-path="url(#clip-path)">
      <path id="Path_1610" data-name="Path 1610" d="M147.437,67.291h2.473l-.145.873c-.145.436-.291,1.018-.291,1.018h0A4.65,4.65,0,0,1,153.4,67c1.746,0,3.055.873,3.055,2.764,0,.436-.145.873-.145,1.309l-1.164,6.255h-2.618l1.164-5.964c0-.291.145-.727.145-.873,0-.873-.436-1.164-1.309-1.164a4.013,4.013,0,0,0-3.637,3.491l-.873,4.51H145.4Z" transform="translate(66.11 30.463)" fill="#0056a2"/>
    </g>
    <g id="Group_1041" data-name="Group 1041" clip-path="url(#clip-path)">
      <path id="Path_1611" data-name="Path 1611" d="M157.128,79.465c1.6,0,3.055-.727,3.346-2.473l.145-.582a1.5,1.5,0,0,1,.145-.582h0a3.581,3.581,0,0,1-2.909,1.455c-2.618,0-3.928-1.746-3.928-4.219,0-2.764,1.891-5.964,5.382-5.964,1.164,0,2.473.291,2.909,1.455h0v-.436l.145-.727h2.473l-1.891,9.6a5.541,5.541,0,0,1-5.819,4.655,7.92,7.92,0,0,1-3.928-1.018l1.018-1.891a7.523,7.523,0,0,0,2.909.727m1.455-4.364c2.037,0,3.055-2.327,3.055-3.928,0-1.455-.873-1.891-2.037-1.891-1.891,0-3.055,1.746-3.055,3.637a2.024,2.024,0,0,0,2.037,2.182" transform="translate(69.657 30.509)" fill="#0056a2"/>
    </g>
    <g id="Group_1042" data-name="Group 1042" clip-path="url(#clip-path)">
      <path id="Path_1612" data-name="Path 1612" d="M201.505,63.876c-2.037,0-5.237-.145-8.437-.145V53.548h9.455c4.073,0,6.837,1.746,6.837,4.8.145,3.637-2.764,5.528-7.855,5.528m-.873-29.385c5.091,0,7.564,1.6,7.564,4.946s-2.618,5.528-6.692,5.528h-8.292V34.492h7.419Zm10.328,14.4a11.326,11.326,0,0,0,8.292-11.346c0-8-6.255-12.656-17.165-12.656-6.11,0-14.983.145-20.8.436V72.9c5.964.291,15.856.582,21.675.582,11.2,0,18.038-4.946,18.038-13.529.145-5.382-3.782-9.746-10.037-11.056M176.339,27.8a63.854,63.854,0,0,0-19.2-3.2c-11.928,0-19.347,5.673-19.347,15.129,0,8.292,4.946,11.783,15.565,13.965,5.964,1.309,11.492,1.891,11.492,5.673,0,2.764-2.618,4.073-7.71,4.073-4.219,0-10.474-1.164-18.038-4.073l-2.618,10.474a63.385,63.385,0,0,0,21.238,4.073c11.928,0,19.929-5.237,19.929-15.274,0-9.164-6.546-12.219-16.292-14.4-6.692-1.455-10.619-1.891-10.619-5.237,0-2.909,2.473-4.219,6.692-4.219,4.073,0,10.037,1.164,16.729,3.2ZM110.879,62.858c-2.327,0-4.946,0-7.419-.145V35.51c2.182-.145,4.364-.145,6.4-.145,7.71,0,13.238,5.382,13.238,13.674,0,8.437-5.382,13.819-12.219,13.819m-1.455-38.113c-6.546,0-12.51.291-17.747.582V72.9c5.237.291,11.783.582,18.911.582,14.256,0,24.73-9.455,24.73-24.584,0-14.838-10.474-24.148-25.893-24.148M63.747,62.858c-2.327,0-4.946,0-7.419-.145V35.51c2.037-.145,4.364-.145,6.4-.145,7.71,0,13.238,5.382,13.238,13.674,0,8.437-5.528,13.819-12.219,13.819m-1.6-38.113c-6.546,0-12.51.291-17.747.582V72.9c5.237.291,11.783.582,18.911.582,14.256,0,24.73-9.455,24.73-24.584.145-14.838-10.328-24.148-25.893-24.148" transform="translate(20.188 11.185)" fill="#98002e"/>
    </g>
  </g>
</svg>
